<svg width="54" height="54" viewBox="0 0 54 54" fill="none" xmlns="http://www.w3.org/2000/svg">
<path d="M16.4502 38.9004H36.2002" stroke="#D6D6D6" stroke-width="0.5" stroke-linecap="square"/>
<path d="M14.6001 34.8501L14.6001 15.1001" stroke="#D9D9D9" stroke-width="0.5" stroke-linecap="square"/>
<ellipse cx="14.725" cy="37.725" rx="4.725" ry="4.725" fill="#0D0D0D"/>
<ellipse cx="14.725" cy="37.725" rx="4.725" ry="4.725" fill="#0D0D0D"/>
<ellipse cx="14.725" cy="37.725" rx="4.725" ry="4.725" fill="#0D0D0D"/>
<ellipse cx="40.725" cy="38.725" rx="4.725" ry="4.725" fill="#0D0D0D"/>
<ellipse cx="40.725" cy="38.725" rx="4.725" ry="4.725" fill="#0D0D0D"/>
<ellipse cx="40.725" cy="38.725" rx="4.725" ry="4.725" fill="#0D0D0D"/>
<ellipse cx="15.725" cy="12.725" rx="4.725" ry="4.725" fill="#0D0D0D"/>
<ellipse cx="15.725" cy="12.725" rx="4.725" ry="4.725" fill="#0D0D0D"/>
<ellipse cx="15.725" cy="12.725" rx="4.725" ry="4.725" fill="#0D0D0D"/>
<path d="M16.4502 38.9004H36.2002" stroke="#040303" stroke-width="0.5" stroke-linecap="square"/>
<path d="M14.6001 34.8501L14.6001 15.1001" stroke="#040303" stroke-width="0.5" stroke-linecap="square"/>
<ellipse cx="14.725" cy="37.725" rx="4.725" ry="4.725" fill="#0D0D0D"/>
<ellipse cx="14.725" cy="37.725" rx="4.725" ry="4.725" fill="#0D0D0D"/>
<ellipse cx="14.725" cy="37.725" rx="4.725" ry="4.725" fill="#0D0D0D"/>
<ellipse cx="40.725" cy="38.725" rx="4.725" ry="4.725" fill="#0D0D0D"/>
<ellipse cx="40.725" cy="38.725" rx="4.725" ry="4.725" fill="#0D0D0D"/>
<ellipse cx="40.725" cy="38.725" rx="4.725" ry="4.725" fill="#0D0D0D"/>
<ellipse cx="15.725" cy="12.725" rx="4.725" ry="4.725" fill="#0D0D0D"/>
<ellipse cx="15.725" cy="12.725" rx="4.725" ry="4.725" fill="#0D0D0D"/>
<ellipse cx="15.725" cy="12.725" rx="4.725" ry="4.725" fill="#0D0D0D"/>
</svg>
